<svg width="41" height="41" viewBox="0 0 41 41" fill="none" xmlns="http://www.w3.org/2000/svg">
<path id="Star 6" d="M18.0225 0.857237C19.4689 -0.271397 21.4976 -0.271398 22.944 0.857235L26.3358 3.50394C26.9068 3.94946 27.588 4.23161 28.3067 4.3203L32.5766 4.84719C34.3974 5.07187 35.8319 6.5064 36.0566 8.32721L36.5835 12.5971C36.6722 13.3158 36.9543 13.997 37.3999 14.568L40.0466 17.9598C41.1752 19.4062 41.1752 21.4349 40.0466 22.8813L37.3999 26.2731C36.9543 26.8441 36.6722 27.5253 36.5835 28.244L36.0566 32.5139C35.8319 34.3347 34.3974 35.7693 32.5766 35.9939L28.3067 36.5208C27.588 36.6095 26.9068 36.8917 26.3358 37.3372L22.944 39.9839C21.4976 41.1125 19.4689 41.1125 18.0225 39.9839L14.6307 37.3372C14.0597 36.8917 13.3785 36.6095 12.6598 36.5208L8.3899 35.9939C6.56909 35.7693 5.13455 34.3347 4.90987 32.5139L4.38299 28.244C4.2943 27.5253 4.01214 26.8441 3.56662 26.2731L0.91992 22.8813C-0.208714 21.4349 -0.208715 19.4062 0.919918 17.9598L3.56662 14.568C4.01214 13.997 4.2943 13.3158 4.38299 12.5971L4.90987 8.32721C5.13455 6.50641 6.56909 5.07187 8.38989 4.84719L12.6598 4.3203C13.3785 4.23161 14.0597 3.94946 14.6307 3.50394L18.0225 0.857237Z" fill="url(#paint0_linear_1_285)"/>
<defs>
<linearGradient id="paint0_linear_1_285" x1="17.9997" y1="64.937" x2="72.4997" y2="33.4371" gradientUnits="userSpaceOnUse">
<stop stop-color="#FAA677"/>
<stop offset="1" stop-color="#FAA677" stop-opacity="0.47"/>
</linearGradient>
</defs>
</svg>
